<?xml version="1.0" encoding="utf-8"?>
<!-- Generator: Adobe Illustrator 16.0.3, SVG Export Plug-In . SVG Version: 6.00 Build 0)  -->
<!DOCTYPE svg PUBLIC "-//W3C//DTD SVG 1.1//EN" "http://www.w3.org/Graphics/SVG/1.1/DTD/svg11.dtd">
<svg version="1.1" xmlns="http://www.w3.org/2000/svg" xmlns:xlink="http://www.w3.org/1999/xlink" x="0px" y="0px" width="1024px"
	 height="512px" viewBox="0 0 1024 512" enable-background="new 0 0 1024 512" xml:space="preserve">
<g id="Fondo">
	<linearGradient id="SVGID_1_" gradientUnits="userSpaceOnUse" x1="0" y1="256" x2="1024" y2="256">
		<stop  offset="0" style="stop-color:#FD7E32"/>
		<stop  offset="0.5" style="stop-color:#FF5400"/>
		<stop  offset="1" style="stop-color:#D83C01"/>
	</linearGradient>
	<rect fill="url(#SVGID_1_)" width="1024" height="512"/>
</g>
<g id="Texto">
	<g>
		<rect x="392" y="333" fill="none" width="332" height="68"/>
		<path fill="#FFFFFF" d="M396.188,333.483c3.166,0,5.827,2.41,5.827,5.771c0,3.376-2.647,5.785-5.827,5.785h-3.348v-11.557H396.188
			z M395.88,342.687c1.947,0,3.278-1.484,3.292-3.418c0-1.933-1.331-3.432-3.292-3.432h-0.406v6.85H395.88z"/>
		<path fill="#FFFFFF" d="M405.918,334.885c0,0.813-0.658,1.471-1.471,1.471s-1.471-0.658-1.471-1.471s0.658-1.471,1.471-1.471
			S405.918,334.072,405.918,334.885z M403.172,345.04h2.479v-7.186h-2.479V345.04z"/>
		<path fill="#FFFFFF" d="M412.934,338.204l-0.813,1.625c0,0-0.84-0.448-1.597-0.448c-0.546,0-0.771,0.099-0.771,0.435
			c0,0.378,0.504,0.49,1.121,0.687c0.953,0.294,2.185,0.826,2.185,2.297c0,2.115-1.933,2.451-3.404,2.451
			c-1.737,0-2.773-0.967-2.773-0.967l1.008-1.694c0,0,0.98,0.826,1.779,0.826c0.35,0,0.77-0.042,0.77-0.519
			c0-0.518-0.784-0.56-1.597-0.98c-0.729-0.378-1.457-0.882-1.457-1.961c0-1.471,1.247-2.311,3.138-2.311
			C411.911,337.645,412.934,338.204,412.934,338.204z"/>
		<path fill="#FFFFFF" d="M416.403,341.44c0,0.994,0.771,1.778,1.709,1.778c0.742,0,1.205-0.336,1.205-0.336l0.84,1.723
			c0,0-0.813,0.645-2.409,0.645c-2.073,0-3.978-1.681-3.978-3.782c0-2.115,1.891-3.823,3.978-3.823c1.597,0,2.409,0.672,2.409,0.672
			l-0.84,1.695c0,0-0.462-0.337-1.205-0.337C417.174,339.675,416.403,340.46,416.403,341.44z"/>
		<path fill="#FFFFFF" d="M424.972,337.645c2.381,0,4.287,1.568,4.287,3.81c0,2.213-1.807,3.796-4.287,3.796
			c-2.591,0-4.328-1.583-4.328-3.796C420.644,339.213,422.549,337.645,424.972,337.645z M424.958,343.135
			c0.966,0,1.667-0.7,1.667-1.681c0-0.994-0.742-1.695-1.667-1.695c-0.939,0-1.681,0.701-1.681,1.695
			C423.277,342.435,423.95,343.135,424.958,343.135z"/>
		<path fill="#FFFFFF" d="M430.388,337.854h2.479v1.036h0.028c0,0,0.785-1.246,2.199-1.246c0.925,0,1.569,0.447,1.569,0.447
			l-1.037,2.102c0,0-0.462-0.393-1.289-0.393c-1.289,0-1.471,1.275-1.471,1.457v3.782h-2.479V337.854z"/>
		<path fill="#FFFFFF" d="M440.414,337.645c0.967,0,1.765,0.321,2.354,0.896v-5.548h2.479v12.047h-2.451v-0.813h-0.028
			c-0.533,0.589-1.373,1.022-2.354,1.022c-2.101,0-3.572-1.694-3.572-3.796S438.313,337.645,440.414,337.645z M441.156,343.135
			c0.966,0,1.667-0.7,1.667-1.681c0-0.994-0.742-1.695-1.667-1.695c-0.938,0-1.681,0.701-1.681,1.695
			C439.475,342.435,440.147,343.135,441.156,343.135z"/>
		<path fill="#FFFFFF" d="M454.33,333.483c1.989,0,3.558,0.743,3.558,2.942c0,1.064-0.462,1.975-1.443,2.479
			c1.443,0.253,2.465,1.051,2.465,2.914c0,1.905-1.387,3.222-3.782,3.222h-4.384v-11.557H454.33z M453.587,338.008
			c1.134,0,1.751-0.35,1.751-1.316c0-0.826-0.603-1.177-1.751-1.177h-0.21v2.493H453.587z M454.204,343.009
			c1.247,0,1.933-0.378,1.933-1.288c0-1.065-0.687-1.443-1.933-1.443h-0.827v2.731H454.204z"/>
		<path fill="#FFFFFF" d="M463.877,337.645c2.381,0,4.287,1.568,4.287,3.81c0,2.213-1.807,3.796-4.287,3.796
			c-2.591,0-4.328-1.583-4.328-3.796C459.549,339.213,461.454,337.645,463.877,337.645z M463.864,343.135
			c0.966,0,1.667-0.7,1.667-1.681c0-0.994-0.742-1.695-1.667-1.695c-0.939,0-1.681,0.701-1.681,1.695
			C462.183,342.435,462.855,343.135,463.864,343.135z"/>
		<path fill="#FFFFFF" d="M469.672,335.179h2.479v2.676h1.513v1.891h-1.513v2.283c0,0.673,0.168,0.995,0.56,0.995
			c0.322,0,0.616-0.225,0.616-0.225l0.617,2.003c0,0-0.799,0.448-1.821,0.448c-1.975,0-2.451-1.471-2.451-2.745v-2.76h-1.037v-1.891
			h1.037V335.179z"/>
		<path fill="#FFFFFF" d="M482.819,333.483c2.255,0,3.95,1.163,3.95,3.559c0,2.381-1.695,3.712-3.95,3.712h-1.583v4.286h-2.633
			v-11.557H482.819z M481.979,338.652c1.037,0,2.017-0.35,2.017-1.526c0-1.19-0.98-1.541-2.017-1.541h-0.743v3.067H481.979z"/>
		<path fill="#FFFFFF" d="M487.577,337.854h2.479v1.036h0.028c0,0,0.785-1.246,2.199-1.246c0.925,0,1.569,0.447,1.569,0.447
			l-1.037,2.102c0,0-0.462-0.393-1.289-0.393c-1.289,0-1.471,1.275-1.471,1.457v3.782h-2.479V337.854z"/>
		<path fill="#FFFFFF" d="M498.274,337.645c2.381,0,4.287,1.568,4.287,3.81c0,2.213-1.807,3.796-4.287,3.796
			c-2.591,0-4.328-1.583-4.328-3.796C493.946,339.213,495.851,337.645,498.274,337.645z M498.261,343.135
			c0.966,0,1.667-0.7,1.667-1.681c0-0.994-0.742-1.695-1.667-1.695c-0.938,0-1.681,0.701-1.681,1.695
			C496.58,342.435,497.252,343.135,498.261,343.135z"/>
		<path fill="#FFFFFF" d="M503.718,337.854h2.479v8.292c0,1.274-0.616,2.746-2.591,2.746c-1.177,0-1.625-0.295-1.975-0.448
			l0.771-2.004c0,0,0.322,0.211,0.63,0.211c0.42,0,0.686-0.309,0.686-0.981V337.854z M504.993,333.414
			c-0.813,0-1.471,0.658-1.471,1.471s0.658,1.471,1.471,1.471s1.471-0.658,1.471-1.471S505.806,333.414,504.993,333.414z"/>
		<path fill="#FFFFFF" d="M509.935,341.79c0,1.106,0.925,1.485,1.555,1.485c0.798,0,1.148-0.154,1.751-0.799l1.793,0.896
			c-0.813,1.358-2.129,1.877-3.726,1.877c-2.171,0-3.95-1.709-3.95-3.796c0-2.102,1.779-3.81,3.95-3.81
			c2.185,0,3.852,1.288,3.852,3.81c0,0.098,0,0.252-0.014,0.336H509.935z M512.737,340.418c-0.112-0.757-0.63-1.163-1.359-1.163
			c-0.854,0-1.331,0.504-1.373,1.163H512.737z"/>
		<path fill="#FFFFFF" d="M518.434,341.44c0,0.994,0.77,1.778,1.709,1.778c0.742,0,1.204-0.336,1.204-0.336l0.841,1.723
			c0,0-0.813,0.645-2.41,0.645c-2.072,0-3.978-1.681-3.978-3.782c0-2.115,1.892-3.823,3.978-3.823c1.598,0,2.41,0.672,2.41,0.672
			l-0.841,1.695c0,0-0.462-0.337-1.204-0.337C519.203,339.675,518.434,340.46,518.434,341.44z"/>
		<path fill="#FFFFFF" d="M523.542,335.179h2.479v2.676h1.513v1.891h-1.513v2.283c0,0.673,0.168,0.995,0.561,0.995
			c0.321,0,0.616-0.225,0.616-0.225l0.616,2.003c0,0-0.799,0.448-1.821,0.448c-1.975,0-2.451-1.471-2.451-2.745v-2.76h-1.036v-1.891
			h1.036V335.179z"/>
	</g>
	<g>
		<rect x="283" y="238.792" fill="none" width="616" height="119"/>
		<path fill="#FFFFFF" d="M309.039,329.091H289.3v-86.622h19.739V329.091z"/>
		<path fill="#FFFFFF" d="M334.449,334.865c1.995,3.255,6.51,6.93,14.594,6.93c5.145,0,13.125-3.045,13.125-12.599v-3.99
			c-3.99,4.41-10.29,5.46-17.639,5.46c-15.75,0-26.774-12.705-26.774-28.454s11.024-28.559,26.774-28.559
			c7.14,0,12.915,2.31,17.324,6.404h0.315v-4.829h18.584v55.332c0,18.06-13.334,27.404-31.708,27.404
			c-11.234,0-24.149-2.521-29.819-15.645L334.449,334.865z M350.093,314.812c7.245,0,12.495-5.25,12.495-12.6
			c0-7.454-5.565-12.704-12.495-12.704c-7.035,0-12.599,5.25-12.599,12.704C337.494,309.562,342.534,314.812,350.093,314.812z"/>
		<path fill="#FFFFFF" d="M393.354,275.229h18.584v5.67h0.21c4.2-4.201,9.555-7.245,15.435-7.245c9.87,0,23.624,4.935,23.624,19.948
			v35.489h-18.584v-30.448c0-5.355-3.675-10.5-9.66-10.5c-5.564,0-11.024,5.145-11.024,10.5v30.448h-18.584V275.229z"/>
		<path fill="#FFFFFF" d="M483.338,252.969c0,6.09-4.935,11.025-11.024,11.025s-11.024-4.936-11.024-11.025
			c0-6.089,4.935-11.024,11.024-11.024S483.338,246.879,483.338,252.969z M462.759,329.091h18.584v-53.862h-18.584V329.091z"/>
		<path fill="#FFFFFF" d="M497.617,255.174h18.585v20.055h11.339v14.174h-11.339v17.114c0,5.04,1.26,7.455,4.199,7.455
			c2.415,0,4.62-1.68,4.62-1.68l4.62,15.014c0,0-5.985,3.36-13.649,3.36c-14.805,0-18.375-11.024-18.375-20.579v-20.685h-7.77
			v-14.174h7.77V255.174z"/>
		<path fill="#FFFFFF" d="M551.376,304.732c0,8.294,6.93,11.129,11.654,11.129c5.984,0,8.609-1.155,13.124-5.984l13.439,6.72
			c-6.089,10.185-15.959,14.069-27.929,14.069c-16.274,0-29.608-12.81-29.608-28.454c0-15.749,13.334-28.559,29.608-28.559
			c16.38,0,28.874,9.659,28.874,28.559c0,0.735,0,1.89-0.104,2.521H551.376z M572.375,294.442c-0.84-5.67-4.725-8.715-10.185-8.715
			c-6.405,0-9.975,3.78-10.29,8.715H572.375z"/>
	</g>
</g>
<g id="Flamas">
	<path fill="#FFFFFF" d="M303.512,239.894c-12.239-3.836-21.796-14.446-23.638-27.996c-2.539-18.685,10.549-35.891,29.233-38.43
		c10.282-1.397,20.116,1.937,27.303,8.335c-9.611-3.661-20.769-2.896-30.118,3.041c-15.741,9.989-20.403,30.851-10.412,46.595
		C297.989,234.764,300.584,237.593,303.512,239.894z"/>
	<path fill="#FFFFFF" d="M302.148,238.792c-8.132-3.817-13.764-12.081-13.764-21.659c0-13.206,10.707-23.912,23.913-23.912
		c7.268,0,13.778,3.241,18.162,8.36c-6.324-3.447-14.14-3.968-21.188-0.73c-11.866,5.448-17.069,19.486-11.621,31.354
		C298.799,234.71,300.333,236.919,302.148,238.792z"/>
	<path fill="#FFFFFF" d="M303.938,239.792c-5.053-2.372-8.554-7.508-8.554-13.459c0-8.207,6.653-14.859,14.86-14.859
		c4.516,0,8.562,2.014,11.286,5.195c-3.93-2.142-8.787-2.466-13.167-0.454c-7.374,3.386-10.607,12.109-7.221,19.484
		C301.856,237.256,302.809,238.628,303.938,239.792z"/>
	<g>
	</g>
	<g>
	</g>
	<g>
	</g>
	<g>
	</g>
	<g>
	</g>
	<g>
	</g>
	<g>
	</g>
	<g>
	</g>
	<g>
	</g>
	<g>
	</g>
	<g>
	</g>
	<g>
	</g>
	<g>
	</g>
	<g>
	</g>
	<g>
	</g>
</g>
</svg>
